<?xml version="1.0" encoding="UTF-8" standalone="no"?>
<!-- Created with Inkscape (http://www.inkscape.org/) -->

<svg
   width="2733.156"
   height="3330.7"
   viewBox="0 0 2733.156 3330.7003"
   id="svg2"
   version="1.1"
   inkscape:version="1.4 (86a8ad7, 2024-10-11)"
   sodipodi:docname="lingo.svg"
   inkscape:export-filename="iota.png"
   inkscape:export-xdpi="90"
   inkscape:export-ydpi="90"
   xml:space="preserve"
   xmlns:inkscape="http://www.inkscape.org/namespaces/inkscape"
   xmlns:sodipodi="http://sodipodi.sourceforge.net/DTD/sodipodi-0.dtd"
   xmlns:xlink="http://www.w3.org/1999/xlink"
   xmlns="http://www.w3.org/2000/svg"
   xmlns:svg="http://www.w3.org/2000/svg"
   xmlns:rdf="http://www.w3.org/1999/02/22-rdf-syntax-ns#"
   xmlns:cc="http://creativecommons.org/ns#"
   xmlns:dc="http://purl.org/dc/elements/1.1/"><defs
     id="defs4"><linearGradient
       id="linearGradient1"
       inkscape:collect="always"><stop
         style="stop-color:#00d9f7;stop-opacity:1;"
         offset="0"
         id="stop1" /><stop
         style="stop-color:#0017b9;stop-opacity:1;"
         offset="1"
         id="stop2" /></linearGradient><marker
       inkscape:stockid="Arrow1Lstart"
       orient="auto"
       refY="0"
       refX="0"
       id="Arrow1Lstart"
       style="overflow:visible"
       inkscape:isstock="true"><path
         id="path4170"
         d="M 0,0 5,-5 -12.5,0 5,5 Z"
         style="fill:#000000;fill-opacity:1;fill-rule:evenodd;stroke:#000000;stroke-width:1pt;stroke-opacity:1"
         transform="matrix(0.8,0,0,0.8,10,0)"
         inkscape:connector-curvature="0" /></marker><radialGradient
       inkscape:collect="always"
       xlink:href="#linearGradient1"
       id="radialGradient2"
       cx="-363.43848"
       cy="-310.71548"
       fx="-363.43848"
       fy="-310.71548"
       r="715.38843"
       gradientTransform="matrix(1.3791252,0,0,1.3220639,2711.8898,337.21306)"
       gradientUnits="userSpaceOnUse" /></defs><sodipodi:namedview
     id="base"
     pagecolor="#ffffff"
     bordercolor="#666666"
     borderopacity="1.0"
     inkscape:pageopacity="0.0"
     inkscape:pageshadow="2"
     inkscape:zoom="0.35"
     inkscape:cx="-511.42857"
     inkscape:cy="2250"
     inkscape:document-units="px"
     inkscape:current-layer="layer1"
     showgrid="false"
     units="px"
     inkscape:window-width="3840"
     inkscape:window-height="2126"
     inkscape:window-x="-11"
     inkscape:window-y="-11"
     inkscape:window-maximized="1"
     fit-margin-top="100"
     fit-margin-left="150"
     fit-margin-right="150"
     fit-margin-bottom="100"
     inkscape:showpageshadow="2"
     inkscape:pagecheckerboard="0"
     inkscape:deskcolor="#d1d1d1"><inkscape:grid
       type="xygrid"
       id="grid4149"
       originx="-844.08746"
       originy="-536.42426"
       spacingy="1"
       spacingx="1"
       units="px"
       visible="false" /></sodipodi:namedview><metadata
     id="metadata7"><rdf:RDF><cc:Work
         rdf:about=""><dc:format>image/svg+xml</dc:format><dc:type
           rdf:resource="http://purl.org/dc/dcmitype/StillImage" /></cc:Work></rdf:RDF></metadata><g
     inkscape:label="Calque 1"
     inkscape:groupmode="layer"
     id="layer1"
     transform="translate(-844.08732,1119.3619)"><text
       xml:space="preserve"
       style="font-style:normal;font-weight:normal;font-size:22.809px;line-height:0%;font-family:sans-serif;letter-spacing:0px;word-spacing:0px;fill:#0074d7;fill-opacity:1;stroke:none;stroke-width:1.90077px;stroke-linecap:butt;stroke-linejoin:miter;stroke-opacity:1"
       x="777.83002"
       y="2079.5981"
       id="text4177"><tspan
         sodipodi:role="line"
         id="tspan4179"
         x="777.83002"
         y="2079.5981"
         style="font-style:normal;font-variant:normal;font-weight:normal;font-stretch:normal;font-size:1511.43px;line-height:1.25;font-family:Aaargh;-inkscape-font-specification:Aaargh;fill:#0074d7;fill-opacity:1;stroke-width:1.90077px">Iota</tspan></text><path
       d="m 1754.016,487.44003 a 60.783158,60.783158 0 1 0 -60.9805,-60.78317 60.848932,60.848932 0 0 0 60.9805,60.78317 z m 755.2717,182.35768 a 95.191047,95.191047 0 1 0 -95.3884,-95.19104 95.256821,95.256821 0 0 0 95.3884,95.19104 z m -361.3528,32.22914 a 81.049693,81.049693 0 1 0 -81.2469,-80.9757 81.115466,81.115466 0 0 0 81.2469,80.98392 z m 205.0497,170.18955 a 95.191047,95.191047 0 1 0 -95.4541,-95.19104 95.256821,95.256821 0 0 0 95.4541,95.19104 z M 1979.324,839.78996 a 81.049693,81.049693 0 1 0 -81.1731,-80.98393 81.115466,81.115466 0 0 0 81.1731,80.98393 z M 1839.2669,661.576 a 70.912314,70.912314 0 1 0 -71.1096,-70.71499 70.978089,70.978089 0 0 0 71.1179,70.71499 z m 168.4795,-137.6891 a 70.912314,70.912314 0 1 0 -70.9862,-71.17541 71.043862,71.043862 0 0 0 70.9862,71.17541 z m 298.5307,-24.33629 a 81.049693,81.049693 0 1 0 -81.2471,-80.98391 81.115466,81.115466 0 0 0 81.2471,80.98391 z M 2164.1236,323.37565 a 70.912314,70.912314 0 1 0 -70.9865,-70.91231 71.043862,71.043862 0 0 0 70.9782,70.91231 z m -241.6364,26.30949 a 60.783158,60.783158 0 1 0 -60.9228,-60.78315 60.848932,60.848932 0 0 0 60.9228,60.79137 z m -207.0886,-26.30949 a 50.654003,50.654003 0 1 0 -50.7856,-50.64577 50.719776,50.719776 0 0 0 50.7856,50.64577 z m -2.039,-139.79387 a 44.537045,44.537045 0 1 0 -44.6685,-44.53703 44.602818,44.602818 0 0 0 44.6685,44.53703 z m 172.615,2.05544 a 50.654003,50.654003 0 1 0 -50.7198,-50.64578 50.719776,50.719776 0 0 0 50.7279,50.64578 z m 194.8547,-38.41186 a 60.783158,60.783158 0 1 0 -60.8407,-60.791384 60.922928,60.922928 0 0 0 60.8407,60.791384 z m -38.5434,-162.033617 a 50.654003,50.654003 0 1 0 -50.728,-50.64578 50.719776,50.719776 0 0 0 50.728,50.64578 z m -160.3892,60.725613 a 44.537045,44.537045 0 1 0 -44.7262,-44.5370497 44.602818,44.602818 0 0 0 44.7262,44.5370497 z m -146.1741,18.21932 a 36.446874,36.446874 0 1 0 -36.5701,-36.44687 36.578422,36.578422 0 0 0 36.5701,36.44687 z m 201.0376,-538.645836 a 70.912314,70.912314 0 1 0 -71.1098,-70.91232 70.978089,70.978089 0 0 0 71.1179,70.91232 z m 184.7255,-2.13764 a 60.783158,60.783158 0 1 0 -60.9147,-60.7174 60.848932,60.848932 0 0 0 60.9229,60.7174 z m -34.5312,-214.58684 a 60.783158,60.783158 0 1 0 -60.923,-60.79138 60.922928,60.922928 0 0 0 60.923,60.79138 z m -184.7255,-0.0658 a 70.912314,70.912314 0 1 0 -71.1179,-70.85477 70.978089,70.978089 0 0 0 71.1179,70.85477 z m -215.2447,48.615 a 81.049693,81.049693 0 1 0 -81.3786,-80.98391 81.049693,81.049693 0 0 0 81.3704,80.98391 z m 34.4655,214.71839 a 81.049693,81.049693 0 1 0 -81.1813,-81.0497 81.18124,81.18124 0 0 0 81.1813,81.0497 z m -235.4454,115.37536 a 95.191047,95.191047 0 1 0 -95.4541,-95.19105 95.322594,95.322594 0 0 0 95.4541,95.19105 z M 1337.7258,118.76176 A 113.41037,113.41037 0 1 0 1224.0524,5.3596163 113.54192,113.54192 0 0 0 1337.7258,118.76999 Z m 243.6671,-194.394297 a 95.191047,95.191047 0 1 0 -95.3885,-95.191043 95.322594,95.322594 0 0 0 95.3885,95.191043 z m 235.5767,-115.383573 a 81.049693,81.049693 0 1 0 -81.247,-81.0497 81.115466,81.115466 0 0 0 81.247,81.0497 z m 215.1789,-48.6808 a 70.912314,70.912314 0 1 0 -71.307,-70.72321 70.912314,70.912314 0 0 0 71.307,70.72321 z m 184.7913,0.0658 a 60.783158,60.783158 0 1 0 -60.923,-60.78317 60.848932,60.848932 0 0 0 60.923,60.78317 z m 56.8368,-204.58923 a 50.654003,50.654003 0 1 0 -50.7856,-50.58823 50.719776,50.719776 0 0 0 50.7856,50.58823 z m -34.4654,-214.85815 a 50.654003,50.654003 0 1 0 -50.8513,-50.64578 50.719776,50.719776 0 0 0 50.8513,50.64578 z m 588.7736,943.87785 a 50.654003,50.654003 0 1 0 -50.7937,-50.58823 50.654003,50.654003 0 0 0 50.7937,50.58823 z m -473.1352,-884.65684 a 44.602818,44.602818 0 1 0 -44.6685,-44.52882 44.537045,44.537045 0 0 0 44.6685,44.52882 z m 85.3251,68.55269 a 36.446874,36.446874 0 1 0 -36.5867,-36.44687 36.504427,36.504427 0 0 0 36.5867,36.44687 z m -48.7549,145.84506 a 44.602818,44.602818 0 1 0 -44.6603,-44.53706 44.602818,44.602818 0 0 0 44.6686,44.53706 z m -22.2972,178.20572 a 50.654003,50.654003 0 1 0 -50.7856,-50.64579 50.719776,50.719776 0 0 0 50.7856,50.64579 z m 2.039,380.76419 a 50.654003,50.654003 0 1 0 -50.7856,-50.64577 50.719776,50.719776 0 0 0 50.7856,50.64577 z m 138.0179,97.16426 a 44.537045,44.537045 0 1 0 -44.6687,-44.53704 44.602818,44.602818 0 0 0 44.6687,44.53704 z m 95.3884,105.3202 a 36.446874,36.446874 0 1 0 -36.5045,-36.44687 36.504427,36.504427 0 0 0 36.5045,36.44687 z m 107.6223,-28.54581 a 44.537045,44.537045 0 1 0 -44.6687,-44.53704 44.537045,44.537045 0 0 0 44.6687,44.53704 z m -87.0351,-139.53077 a 50.654003,50.654003 0 1 0 -50.7856,-50.58822 50.654003,50.654003 0 0 0 50.7856,50.58822 z M 2484.8774,72.202186 a 60.783158,60.783158 0 1 0 -60.8571,-60.78316 60.848932,60.848932 0 0 0 60.8571,60.78316 z m 456.8727,113.476134 a 60.783158,60.783158 0 1 0 -60.923,-60.78315 60.922928,60.922928 0 0 0 60.923,60.78315 z m -205.0497,-76.96349 a 60.783158,60.783158 0 1 0 -60.9229,-60.783154 60.848932,60.848932 0 0 0 60.9229,60.783154 z m 306.555,-68.881554 a 70.912314,70.912314 0 1 0 -71.0521,-70.846543 70.978089,70.978089 0 0 0 71.0521,70.846543 z M 2584.4095,-73.585317 a 70.912314,70.912314 0 1 0 -70.978,-70.912323 71.043862,71.043862 0 0 0 70.9863,70.912323 z m 253.8044,34.40789 a 70.912314,70.912314 0 1 0 -71.0519,-70.854773 70.978089,70.978089 0 0 0 71.0519,70.854773 z m 278.1408,-115.391813 a 81.049693,81.049693 0 1 0 -81.1813,-81.04148 81.18124,81.18124 0 0 0 81.173,81.04148 z m -203.0188,-79.01072 a 81.049693,81.049693 0 1 0 -81.2389,-80.97569 81.115466,81.115466 0 0 0 81.2389,80.98393 z m -253.7963,-34.39965 a 81.049693,81.049693 0 1 0 -81.1813,-81.04147 81.18124,81.18124 0 0 0 81.1813,81.04147 z m 286.2967,-204.58923 a 95.191047,95.191047 0 1 0 -95.3884,-95.19104 95.322594,95.322594 0 0 0 95.3884,95.19104 z m -253.8045,-36.44687 a 95.191047,95.191047 0 1 0 -95.4541,-95.19105 95.256821,95.256821 0 0 0 95.4541,95.19105 z m 95.3967,1318.39353 A 113.41037,113.41037 0 1 0 2673.7468,696.099 113.60769,113.60769 0 0 0 2787.4285,809.37782 Z M 2659.5396,-792.54164 a 113.41037,113.41037 0 1 0 -113.7392,-113.41856 113.60769,113.60769 0 0 0 113.7392,113.41856 z"
       id="path1"
       style="fill:url(#radialGradient2);stroke-width:82.2172" /></g></svg>
